<?xml version="1.0" standalone="no"?>
<!DOCTYPE svg PUBLIC "-//W3C//DTD SVG 1.1//EN" "http://www.w3.org/Graphics/SVG/1.1/DTD/svg11.dtd" >
<svg xmlns="http://www.w3.org/2000/svg">
<metadata></metadata>
<defs>
<font id="ankladaoriginal" horiz-adv-x="1200" >
<font-face units-per-em="2048" ascent="1638" descent="-410" />
<missing-glyph horiz-adv-x="500" />
<glyph horiz-adv-x="0" />
<glyph unicode="&#xd;" horiz-adv-x="508" />
<glyph unicode=" "  horiz-adv-x="500" />
<glyph unicode="&#x09;" horiz-adv-x="500" />
<glyph unicode="&#xa0;" horiz-adv-x="500" />
<glyph unicode="!" horiz-adv-x="300" d="M50 150q0 62 44 106t106 44t106 -44t44 -106t-44 -106t-106 -44t-106 44t-44 106zM100 400v1400h200v-1300z" />
<glyph unicode="&#x22;" horiz-adv-x="900" d="M100 1550q0 62 44 106t106 44t106 -44t44 -106l-100 -250l-100 -200v308q-31 11 -56 36q-44 44 -44 106zM500 1550q0 62 44 106t106 44t106 -44t44 -106l-100 -250l-100 -200v308q-31 11 -56 36q-44 44 -44 106z" />
<glyph unicode="#" horiz-adv-x="1300" d="M100 400l100 200h100v400h-200v200h200v400l200 -100v-300h400v400h200v-400h200l-100 -200h-100v-400h200v-200h-200v-400l-200 100v300h-400v-400h-200v400h-200zM500 600h400v400h-400v-400z" />
<glyph unicode="$" horiz-adv-x="1000" d="M100 450v1h200v-1q0 -104 73 -177q35 -35 77 -53v490q-123 27 -218 122q-132 132 -132 318t132 318q95 95 218 122v110l200 100v-210q123 -27 218 -122q132 -132 132 -318v-1h-200v1q0 104 -73 177q-35 35 -77 53v-490q123 -27 218 -122q132 -132 132 -318t-132 -318 q-95 -95 -218 -122v-110l-200 -100v210q-123 27 -218 122q-132 132 -132 318zM300 1150q0 -104 73 -177q35 -35 77 -53v460q-42 -18 -77 -53q-73 -73 -73 -177zM650 220q42 18 77 53q73 73 73 177t-73 177q-35 35 -77 53v-460z" />
<glyph unicode="%" horiz-adv-x="1300" d="M100 1300q0 124 88 212t212 88h895l-959 -1600h-233l839 1400h-258q16 -47 16 -100q0 -124 -88 -212t-212 -88t-212 88t-88 212zM300 1300q0 -41 29.5 -70.5t70.5 -29.5t70.5 29.5t29.5 70.5t-29.5 70.5t-70.5 29.5t-70.5 -29.5t-29.5 -70.5zM700 300q0 124 88 212 t212 88t212 -88t88 -212t-88 -212t-212 -88t-212 88t-88 212zM900 300q0 -41 29.5 -70.5t70.5 -29.5t70.5 29.5t29.5 70.5t-29.5 70.5t-70.5 29.5t-70.5 -29.5t-29.5 -70.5z" />
<glyph unicode="&#x26;" horiz-adv-x="1100" d="M100 400v200q0 166 117 283q9 9 18 17q-9 8 -18 17q-117 117 -117 283t117 283t283 117t283 -117t117 -283h-200q0 83 -58.5 141.5t-141.5 58.5t-141.5 -58.5t-58.5 -141.5t58.5 -141.5t141.5 -58.5h600l-100 -200h-152q52 -89 52 -200v-400h100l100 -200h-600 q-166 0 -283 117t-117 283zM300 400q0 -83 58.5 -141.5t141.5 -58.5h200v400q0 83 -58.5 141.5t-141.5 58.5t-141.5 -58.5t-58.5 -141.5v-200z" />
<glyph unicode="'" horiz-adv-x="500" d="M100 1550q0 62 44 106t106 44t106 -44t44 -106l-100 -250l-100 -200v308q-31 11 -56 36q-44 44 -44 106z" />
<glyph unicode="(" horiz-adv-x="500" d="M100 400v800q0 166 117 283t283 117v-200q-83 0 -141.5 -58.5t-58.5 -141.5v-800q0 -83 58.5 -141.5t141.5 -58.5v-200q-166 0 -283 117t-117 283z" />
<glyph unicode=")" horiz-adv-x="500" d="M100 0v200q83 0 141.5 58.5t58.5 141.5v800q0 83 -58.5 141.5t-141.5 58.5v200q166 0 283 -117t117 -283v-800q0 -166 -117 -283t-283 -117z" />
<glyph unicode="*" horiz-adv-x="900" d="M109 1068l206 132l-206 132l109 168l182 -117v217h200v-217l182 117l109 -168l-206 -132l206 -132l-109 -168l-182 117v-217h-200v217l-182 -117z" />
<glyph unicode="+" horiz-adv-x="900" d="M100 700v200h300v300h200v-300h300v-200h-300v-300h-200v300h-300z" />
<glyph unicode="," horiz-adv-x="500" d="M100 150q0 62 44 106t106 44t106 -44t44 -106v-250l-200 -200v308q-31 11 -56 36q-44 44 -44 106z" />
<glyph unicode="-" horiz-adv-x="700" d="M100 700v200h600v-200h-600z" />
<glyph unicode="." horiz-adv-x="500" d="M100 150q0 62 44 106t106 44t106 -44t44 -106t-44 -106t-106 -44t-106 44t-44 106z" />
<glyph unicode="/" horiz-adv-x="800" d="M-97 0l775 1600h222l-775 -1600h-222z" />
<glyph unicode="0" horiz-adv-x="1300" d="M100 800q0 331 175.5 565.5t424.5 234.5t424.5 -234.5t175.5 -565.5t-175.5 -565.5t-424.5 -234.5t-424.5 234.5t-175.5 565.5zM300 800q0 -249 117 -424.5t283 -175.5t283 175.5t117 424.5t-117 424.5t-283 175.5t-283 -175.5t-117 -424.5zM425 493l373 707l177 -93 l-373 -707z" />
<glyph unicode="1" horiz-adv-x="500" d="M100 1400l100 200h300v-1600h-200v1400h-200z" />
<glyph unicode="2" horiz-adv-x="1000" d="M100 0v451q0 185 132 317t318 132h1q103 0 176 73t73 177t-73 177t-177 73t-177 -73t-73 -177v-1h-200v1q0 186 132 318t318 132t318 -132t132 -318t-132 -318t-317 -132h-1q-104 0 -177 -73t-73 -176v-251h600l100 -200h-900z" />
<glyph unicode="3" horiz-adv-x="1000" d="M100 450v1h200v-1q0 -104 73 -177t177 -73t177 73t73 177t-73 177q-43 43 -98 61l-43 -107l-186 75l303 744h-503l-100 200h900l-295 -726q90 -33 163 -106q132 -132 132 -318t-132 -318t-318 -132t-318 132t-132 318z" />
<glyph unicode="4" horiz-adv-x="1000" d="M100 700l7 13l376 887h217l-297 -700h397v600l200 100v-1600h-200v700h-700z" />
<glyph unicode="5" horiz-adv-x="1000" d="M100 449h200q0 -103 73 -176t177 -73t177 73t73 177t-73 177t-176 73h-451l101 922h1l-2 -22h800l-100 -200h-522l-56 -500h229q185 0 317 -132t132 -318t-132 -318t-318 -132t-318 132t-132 317z" />
<glyph unicode="6" horiz-adv-x="1000" d="M100 449v701q0 186 132 318t318 132h150l-100 -200h-50q-104 0 -177 -73t-73 -177v-325q110 75 250 75q186 0 318 -132t132 -318v-1q0 -185 -132 -317t-318 -132t-318 132t-132 317zM300 449q0 -103 73 -176t177 -73t177 73t73 176v1q0 104 -73 177t-177 73t-177 -73 t-73 -177v-1z" />
<glyph unicode="7" horiz-adv-x="1000" d="M100 1600h900l-85 -200l-597 -1400h-217l597 1400h-498z" />
<glyph unicode="8" horiz-adv-x="1000" d="M100 450q0 186 132 318q17 17 35 32q-18 15 -35 32q-132 132 -132 318t132 318t318 132t318 -132t132 -318t-132 -318q-17 -17 -35 -32q18 -15 35 -32q132 -132 132 -318t-132 -318t-318 -132t-318 132t-132 318zM300 450q0 -104 73 -177t177 -73t177 73t73 177t-73 177 t-177 73t-177 -73t-73 -177zM300 1150q0 -104 73 -177t177 -73t177 73t73 177t-73 177t-177 73t-177 -73t-73 -177z" />
<glyph unicode="9" horiz-adv-x="1000" d="M100 1150v1q0 185 132 317t318 132t318 -132t132 -317v-701q0 -186 -132 -318t-318 -132h-150l100 200h50q104 0 177 73t73 177v325q-110 -75 -250 -75q-186 0 -318 132t-132 318zM300 1150q0 -104 73 -177t177 -73t177 73t73 177v1q0 103 -73 176t-177 73t-177 -73 t-73 -176v-1z" />
<glyph unicode=":" horiz-adv-x="500" d="M100 150q0 62 44 106t106 44t106 -44t44 -106t-44 -106t-106 -44t-106 44t-44 106zM100 850q0 62 44 106t106 44t106 -44t44 -106t-44 -106t-106 -44t-106 44t-44 106z" />
<glyph unicode=";" horiz-adv-x="500" d="M100 150q0 62 44 106t106 44t106 -44t44 -106v-250l-200 -200v308q-31 11 -56 36q-44 44 -44 106zM100 850q0 62 44 106t106 44t106 -44t44 -106t-44 -106t-106 -44t-106 44t-44 106z" />
<glyph unicode="&#x3c;" horiz-adv-x="800" d="M97 798l635 638l142 -141l-494 -496l496 -494l-141 -142z" />
<glyph unicode="=" horiz-adv-x="900" d="M100 500v200h800v-200h-800zM100 900v200h800v-200h-800z" />
<glyph unicode="&#x3e;" horiz-adv-x="800" d="M97 305l496 494l-494 496l142 141l635 -638l-638 -635z" />
<glyph unicode="?" horiz-adv-x="900" d="M50 150q0 62 44 106t106 44t106 -44t44 -106t-44 -106t-106 -44t-106 44t-44 106zM100 400v605l2 -2q103 -103 248 -103t247.5 102.5t102.5 247.5t-102.5 247.5t-247.5 102.5t-248 -102q-1 -2 -2 -3v247q113 58 250 58q228 0 389 -161t161 -389t-161 -389t-389 -161 q-25 0 -50 2v-202z" />
<glyph unicode="@" horiz-adv-x="1900" d="M100 100v1000q0 166 117 283t283 117h1000q166 0 283 -117t117 -283v-700q0 -166 -117 -283t-283 -117l-200 100v25q-149 -125 -350 -125q-228 0 -389 161t-161 389t161 389t389 161q201 0 350 -125v125h200v-900q83 0 141.5 58.5t58.5 141.5v700q0 83 -58.5 141.5 t-141.5 58.5h-1000q-83 0 -141.5 -58.5t-58.5 -141.5v-1000q0 -83 58.5 -141.5t141.5 -58.5h500v-200h-500q-166 0 -283 117t-117 283zM600 550q0 -145 102.5 -247.5t247.5 -102.5t247.5 102.5t102.5 247.5t-102.5 247.5t-247.5 102.5t-247.5 -102.5t-102.5 -247.5z" />
<glyph unicode="A" horiz-adv-x="1500" d="M100 0l601 1597l-1 3h200l-1 -3l601 -1597h-213l-220 600h-534l-220 -600h-213zM607 800h387l-194 527z" />
<glyph unicode="B" horiz-adv-x="1000" d="M100 0v1600h452q185 -1 316 -132q132 -132 132 -318t-132 -318q-17 -17 -35 -32q18 -15 35 -32q132 -132 132 -318t-132 -318q-131 -131 -316 -132h-452zM300 200h252q103 1 175 73q73 73 73 177t-73 177q-72 72 -175 73h-252v-500zM300 900h252q103 1 175 73 q73 73 73 177t-73 177q-72 72 -175 73h-252v-500z" />
<glyph unicode="C" horiz-adv-x="1100" d="M100 800q0 331 190.5 565.5t459.5 234.5q196 0 350 -124v-298q-15 24 -32 47q-132 175 -318 175t-318 -175.5t-132 -424.5t132 -424.5t318 -175.5t318 176q17 22 32 46v-298q-154 -124 -350 -124q-269 0 -459.5 234.5t-190.5 565.5z" />
<glyph unicode="D" horiz-adv-x="1300" d="M100 1400l100 200h450q269 0 459.5 -234.5t190.5 -565.5t-190.5 -565.5t-459.5 -234.5h-450v1400h-100zM400 200h250q186 0 318 175.5t132 424.5t-132 424.5t-318 175.5h-250v-1200z" />
<glyph unicode="E" horiz-adv-x="1100" d="M100 0v1600h1000v-200h-800v-500h600l-100 -200h-500v-500h800v-200h-1000z" />
<glyph unicode="F" horiz-adv-x="1100" d="M100 0v1600h1000v-200h-800v-500h600l-100 -200h-500v-700h-200z" />
<glyph unicode="G" horiz-adv-x="1400" d="M100 800q0 331 190.5 565.5t459.5 234.5q196 0 350 -124v-298q-15 24 -32 47q-132 175 -318 175t-318 -175.5t-132 -424.5t132 -424.5t318 -175.5t318 176q75 100 108 224h-376l-100 200h700q0 -331 -190.5 -565.5t-459.5 -234.5t-459.5 234.5t-190.5 565.5z" />
<glyph unicode="H" d="M100 0v1600l200 -100v-600h700v700h200v-1600h-200v700h-700v-700h-200z" />
<glyph unicode="I" horiz-adv-x="500" d="M100 0v200h100v1200h-100l100 200h300v-200h-100v-1200h100v-200h-400z" />
<glyph unicode="J" horiz-adv-x="900" d="M100 400h200q0 -83 58.5 -141.5t141.5 -58.5t141.5 58.5t58.5 141.5v1100l200 100v-1200q0 -166 -117 -283t-283 -117t-283 117t-117 283z" />
<glyph unicode="K" horiz-adv-x="1300" d="M100 0v1600l200 -100v-604l45 46l2 -2l669 660h284l-811 -800l811 -800h-284l-669 660l-47 -47v-613h-200z" />
<glyph unicode="L" horiz-adv-x="1100" d="M100 0v1600l200 -100v-1300h800v-200h-1000z" />
<glyph unicode="M" horiz-adv-x="1900" d="M100 0l400 1592l-2 8h209l-2 -8l295 -1176l295 1176l-2 8h209l-2 -8l400 -1592h-205l-297 1184l-296 -1176l2 -8h-208l2 8l-296 1176l-297 -1184h-205z" />
<glyph unicode="N" d="M100 0v1600h228l672 -1237v1137l200 100v-1600h-230l-670 1232v-1232h-200z" />
<glyph unicode="O" horiz-adv-x="1400" d="M100 800q0 331 190.5 565.5t459.5 234.5t459.5 -234.5t190.5 -565.5t-190.5 -565.5t-459.5 -234.5t-459.5 234.5t-190.5 565.5zM300 800q0 -249 132 -424.5t318 -175.5t318 175.5t132 424.5t-132 424.5t-318 175.5t-318 -175.5t-132 -424.5z" />
<glyph unicode="P" horiz-adv-x="1000" d="M0 1400l100 200h450q186 0 318 -132t132 -318t-132 -318t-318 -132h-250v-700h-200v1400h-100zM300 900h250q104 0 177 73t73 177t-73 177t-177 73h-250v-500z" />
<glyph unicode="Q" horiz-adv-x="1400" d="M100 800q0 331 190.5 565.5t459.5 234.5t459.5 -234.5t190.5 -565.5t-190 -565q-38 -46 -78 -83l142 -244l-173 -100l-136 235q-100 -43 -215 -43q-269 0 -459.5 234.5t-190.5 565.5zM300 800q0 -249 132 -424.5t318 -175.5q59 0 113 18l-163 282l173 100l157 -270 q19 21 38 46q132 175 132 424t-132 424.5t-318 175.5t-318 -175.5t-132 -424.5z" />
<glyph unicode="R" horiz-adv-x="1000" d="M0 1400l100 200h450q186 0 318 -132t132 -318t-132 -318q-103 -103 -240 -126l372 -706h-226l-462 900h238q104 0 177 73t73 177t-73 177t-177 73h-250v-1400h-200v1400h-100z" />
<glyph unicode="S" horiz-adv-x="1000" d="M100 450v1h200v-1q0 -104 73 -177t177 -73t177 73t73 177t-73 177t-177 73q-186 0 -318 132t-132 318t132 318t318 132t318 -132t132 -318v-1h-200v1q0 104 -73 177t-177 73t-177 -73t-73 -177t73 -177t177 -73q186 0 318 -132t132 -318t-132 -318t-318 -132t-318 132 t-132 318z" />
<glyph unicode="T" horiz-adv-x="1100" d="M100 1400l100 200h900v-200h-400v-1400h-200v1400h-400z" />
<glyph unicode="U" d="M100 549v1051h200v-1051q0 -144 103 -246q102 -103 247 -103t248 103q102 102 102 246v951l200 100v-1051q0 -227 -161 -388t-389 -161t-389 161t-161 388z" />
<glyph unicode="V" horiz-adv-x="1300" d="M100 1600h210l390 -1273l390 1273h210l-501 -1597l1 -3h-200l1 3z" />
<glyph unicode="W" horiz-adv-x="2300" d="M100 1600h210l390 -1273l400 1273h200l400 -1273l390 1273h210l-501 -1597l1 -3h-200l1 3l-401 1278l-401 -1278l1 -3h-200l1 3z" />
<glyph unicode="X" d="M100 0l438 800l-438 800h228l324 -592l323 592h228l-437 -800l437 -800h-228l-323 592l-324 -592h-228z" />
<glyph unicode="Y" d="M100 0l438 800l-438 800h228l324 -592l323 592h228l-875 -1600h-228z" />
<glyph unicode="Z" d="M100 0l766 1400h-666l-100 200h1103l-766 -1400h763v-200h-1100z" />
<glyph unicode="[" horiz-adv-x="600" d="M100 0v1600h500v-200h-300v-1200h300v-200h-500z" />
<glyph unicode="\" horiz-adv-x="800" d="M-97 1600h222l775 -1600h-222z" />
<glyph unicode="]" horiz-adv-x="600" d="M100 0v200h300v1200h-300v200h500v-1600h-500z" />
<glyph unicode="^" horiz-adv-x="1100" d="M296 1340l354 354l354 -354l-142 -142l-212 213l-212 -212z" />
<glyph unicode="_" horiz-adv-x="1000" d="M0 0h1000v-200h-1000v200z" />
<glyph unicode="`" horiz-adv-x="500" d="M98 1457l238 182l164 -378l-80 -61z" />
<glyph unicode="a" d="M100 550q0 228 161 389t389 161q201 0 350 -125v125h200v-1100l-200 100v25q-149 -125 -350 -125q-228 0 -389 161t-161 389zM300 550q0 -145 102.5 -247.5t247.5 -102.5t247.5 102.5t102.5 247.5t-102.5 247.5t-247.5 102.5t-247.5 -102.5t-102.5 -247.5z" />
<glyph unicode="b" d="M100 0v1600h200v-625q149 125 350 125q228 0 389 -161t161 -389t-161 -389t-389 -161q-201 0 -350 125v-25zM300 550q0 -145 102.5 -247.5t247.5 -102.5t247.5 102.5t102.5 247.5t-102.5 247.5t-247.5 102.5t-247.5 -102.5t-102.5 -247.5z" />
<glyph unicode="c" horiz-adv-x="900" d="M100 550q0 228 161 389t389 161q137 0 250 -58v-247q-1 1 -2 3q-103 102 -248 102t-247.5 -102.5t-102.5 -247.5t102.5 -247.5t247.5 -102.5t248 103l2 2v-247q-113 -58 -250 -58q-228 0 -389 161t-161 389z" />
<glyph unicode="d" d="M100 550q0 228 161 389t389 161q201 0 350 -125v625h200v-1600l-200 100v25q-149 -125 -350 -125q-228 0 -389 161t-161 389zM300 550q0 -145 102.5 -247.5t247.5 -102.5t247.5 102.5t102.5 247.5t-102.5 247.5t-247.5 102.5t-247.5 -102.5t-102.5 -247.5z" />
<glyph unicode="e" d="M100 550q0 228 161 389t389 161t389 -161t161 -389q0 -21 -1 -42l1 -8h-897q15 -113 100 -197q102 -103 247 -103t248 103l2 2v-247q-113 -58 -250 -58q-228 0 -389 161t-161 389zM333 700h634q-25 53 -69 98q-103 102 -248 102t-247 -102q-45 -45 -70 -98z" />
<glyph unicode="f" horiz-adv-x="700" d="M100 900v200h102q16 196 159 339t339 159v-201q-113 -15 -197 -99q-85 -85 -100 -198h297l-100 -200h-200v-900h-200v900h-100z" />
<glyph unicode="g" d="M100 550q0 228 161 389t389 161q201 0 350 -125v25l200 100v-1050q0 -228 -161 -389t-389 -161q-137 0 -250 58v247q1 -1 3 -2q102 -103 247 -103t247.5 102.5t102.5 247.5v75q-149 -125 -350 -125q-228 0 -389 161t-161 389zM300 550q0 -145 102.5 -247.5t247.5 -102.5 t247.5 102.5t102.5 247.5t-102.5 247.5t-247.5 102.5t-247.5 -102.5t-102.5 -247.5z" />
<glyph unicode="h" d="M100 0v1500l200 100v-625q149 125 350 125q228 0 389 -161q160 -160 161 -387v-552h-200v550q0 145 -102.5 247.5t-247.5 102.5t-247.5 -102.5t-102.5 -247.5v-550h-200z" />
<glyph unicode="i" horiz-adv-x="400" d="M100 900l100 200h200v-1100h-200v900h-100zM100 1350q0 62 44 106t106 44t106 -44t44 -106t-44 -106t-106 -44t-106 44t-44 106z" />
<glyph unicode="j" horiz-adv-x="400" d="M-100 -299q113 15 197 99q85 85 102 200l1 200v700h-100l100 200h200v-1100q-18 -198 -161 -341t-339 -159v201zM100 1350q0 62 44 106t106 44t106 -44t44 -106t-44 -106t-106 -44t-106 44t-44 106z" />
<glyph unicode="k" d="M100 0v1500l200 100v-1119l618 619h281l1 -1l-549 -549l549 -550h-282l-408 409l-210 -210v-199h-200z" />
<glyph unicode="l" horiz-adv-x="300" d="M100 0v1500l200 100v-1600h-200z" />
<glyph unicode="m" horiz-adv-x="1700" d="M100 0v1000l200 100v-75q110 75 250 75q186 0 318 -132q17 -17 32 -35q15 18 32 35q132 132 318 132t318 -132q129 -129 132 -310v-658h-200v652q-1 103 -73 175q-73 73 -177 73t-177 -73q-72 -72 -73 -175v-652h-200v652q-1 103 -73 175q-73 73 -177 73t-177 -73 q-72 -72 -73 -175v-652h-200z" />
<glyph unicode="n" d="M100 0v1000l200 100v-125q149 125 350 125q228 0 389 -161q160 -160 161 -387v-552h-200v552q-1 144 -102 246q-103 102 -248 102t-247 -102t-103 -246v-552h-200z" />
<glyph unicode="o" d="M100 550q0 228 161 389t389 161t389 -161t161 -389t-161 -389t-389 -161t-389 161t-161 389zM300 550q0 -145 102.5 -247.5t247.5 -102.5t247.5 102.5t102.5 247.5t-102.5 247.5t-247.5 102.5t-247.5 -102.5t-102.5 -247.5z" />
<glyph unicode="p" d="M100 -500v1600l200 -100v-25q149 125 350 125q228 0 389 -161t161 -389t-161 -389t-389 -161q-201 0 -350 125v-625h-200zM300 550q0 -145 102.5 -247.5t247.5 -102.5t247.5 102.5t102.5 247.5t-102.5 247.5t-247.5 102.5t-247.5 -102.5t-102.5 -247.5z" />
<glyph unicode="q" d="M100 550q0 228 161 389t389 161q201 0 350 -125v25l200 100v-1600h-200v625q-149 -125 -350 -125q-228 0 -389 161t-161 389zM300 550q0 -145 102.5 -247.5t247.5 -102.5t247.5 102.5t102.5 247.5t-102.5 247.5t-247.5 102.5t-247.5 -102.5t-102.5 -247.5z" />
<glyph unicode="r" horiz-adv-x="600" d="M100 0v1100l200 -100v-25q130 109 300 123v-201q-113 -15 -197 -99q-85 -85 -102 -198l-1 -600h-200z" />
<glyph unicode="s" horiz-adv-x="752" d="M100 318h200q2 -47 37 -82q37 -36 89 -36t89 36.5t37 87.5t-37 88q-35 34 -95 42v-2q-131 2 -224 95q-96 95 -96 229t95.5 229t230.5 95t230 -95l94 -93l-198 -130q-2 47 -37 82q-37 36 -89 36t-89 -36.5t-37 -87.5t37 -87q35 -35 95 -41q131 -2 225 -95q95 -95 95 -229 t-95.5 -229t-230.5 -95t-230 95q-94 93 -96 223z" />
<glyph unicode="t" horiz-adv-x="700" d="M100 900v200h200v400l200 100v-500h200v-200h-200v-900h-200v900h-200z" />
<glyph unicode="u" d="M100 548v552h200v-552q1 -144 102 -246q103 -102 248 -102t247 102t103 246v552h200v-1100l-200 100v25q-149 -125 -350 -125q-228 0 -389 161q-160 160 -161 387z" />
<glyph unicode="v" horiz-adv-x="1100" d="M101 1100h213l286 -815l287 815h213l-400 -1099v-1h-200l1 3z" />
<glyph unicode="w" horiz-adv-x="1900" d="M101 1100h213l286 -815l300 815h200l300 -815l286 815h213l-400 -1097l1 -3h-200v1l-300 824l-300 -824v-1h-200l1 3z" />
<glyph unicode="x" horiz-adv-x="1100" d="M98 1l379 549l-379 549l1 1h241l258 -374l259 374h242l-379 -550l379 -550h-242l-259 374l-258 -374h-241z" />
<glyph unicode="y" horiz-adv-x="1100" d="M98 1099l1 1h241l560 -812v712l200 100v-1100q-18 -198 -161 -341t-339 -159v201q113 15 197 99q85 85 102 200h-42z" />
<glyph unicode="z" horiz-adv-x="1100" d="M98 1l621 899h-519l-100 200h999l-621 -900h622v-200h-1001z" />
<glyph unicode="{" horiz-adv-x="600" d="M100 500v600h100v100q0 166 117 283t283 117v-200q-83 0 -141.5 -58.5t-58.5 -141.5v-300h-100v-200h100v-300q0 -83 58.5 -141.5t141.5 -58.5v-200q-166 0 -283 117t-117 283v100h-100z" />
<glyph unicode="|" horiz-adv-x="800" d="M300 -100v1700h200v-1600z" />
<glyph unicode="}" horiz-adv-x="600" d="M100 0v200q83 0 141.5 58.5t58.5 141.5v300h100v200h-100v300q0 83 -58.5 141.5t-141.5 58.5v200q166 0 283 -117t117 -283v-100h100v-600h-100v-100q0 -166 -117 -283t-283 -117z" />
<glyph unicode="~" d="M299 1341l282 283l142 -141l141 141l142 -141l-283 -283l-142 141l-141 -141z" />
<glyph unicode="&#xa1;" horiz-adv-x="300" d="M54 1450q0 62 44 106t106 44t106 -44t44 -106t-44 -106t-106 -44t-106 44t-44 106zM100 -200v1300l200 100v-1400h-200z" />
<glyph unicode="&#xa2;" horiz-adv-x="1100" d="M100 800q0 331 191 566q135 166 309 214v120l200 100v-202q166 -14 300 -122v-298q-15 24 -32 47q-114 151 -268 172v-1194q154 21 268 173q17 22 32 46v-298q-134 -108 -300 -122v-202h-200v220q-174 48 -309 215q-191 234 -191 565zM300 800q0 -249 132 -424 q75 -101 168 -144v1136q-93 -43 -168 -143q-132 -176 -132 -425z" />
<glyph unicode="&#xa3;" d="M100 700v200h100v700l200 -100v-600h600l-100 -200h-500v-500h800v-200h-1000v700h-100z" />
<glyph unicode="&#xa4;" horiz-adv-x="1300" d="M100 391l147 147q-96 137 -96 313q1 176 97 312l-147 147l141 141l148 -147q136 96 312 96t312 -97l148 148l141 -142l-147 -147q96 -137 96 -313q-1 -176 -97 -312l147 -147l-141 -141l-148 147q-136 -96 -312 -96t-312 97l-148 -148zM351 849q0 -144 103 -246 q102 -103 247 -103t248 102q102 103 103 248v1q0 144 -103 246q-102 103 -247 103t-248 -102q-102 -103 -102 -248z" />
<glyph unicode="&#xa5;" d="M100 0l329 600h-329v200h438l-55 100h-383v200h274l-274 500h228l324 -592l323 592h228l-273 -500h270l-100 -200h-280l-54 -100h334l-100 -200h-344l-328 -600h-228z" />
<glyph unicode="&#xa6;" horiz-adv-x="800" d="M300 -100v700h200v-600zM300 900v700h200v-700h-200z" />
<glyph unicode="&#xa7;" horiz-adv-x="1000" d="M100 750q0 145 135 248q9 7 19 13q-11 10 -22 21q-132 132 -132 318t132 318t318 132q26 0 50 -2v-203q-24 5 -50 5q-104 0 -177 -73t-73 -177t73 -177t177 -73h11q191 0 326 -102.5t135 -247.5t-135 -247q-16 -12 -32 -23q7 -6 13 -12q132 -132 132 -318t-132 -318 t-318 -132q-26 0 -50 2v203q24 -5 50 -5q104 0 177 73t73 177t-73 177t-177 73q-184 3 -315 103q-135 102 -135 247zM300 750q0 -62 73 -106t177 -44t177 44t73 106t-73 106t-177 44t-177 -44t-73 -106z" />
<glyph unicode="&#xa8;" horiz-adv-x="1000" d="M300 1300q0 41 29.5 70.5t70.5 29.5t70.5 -29.5t29.5 -70.5t-29.5 -70.5t-70.5 -29.5t-70.5 29.5t-29.5 70.5zM800 1300q0 41 29.5 70.5t70.5 29.5t70.5 -29.5t29.5 -70.5t-29.5 -70.5t-70.5 -29.5t-70.5 29.5t-29.5 70.5z" />
<glyph unicode="&#xa9;" horiz-adv-x="1700" d="M100 800q0 331 234.5 565.5t565.5 234.5t565.5 -234.5t234.5 -565.5t-234.5 -565.5t-565.5 -234.5t-565.5 234.5t-234.5 565.5zM300 780q0 -257 175.5 -438.5t424.5 -181.5t424.5 181.5t175.5 438.5t-175.5 438.5t-424.5 181.5t-424.5 -181.5t-175.5 -438.5zM400 780 q0 228 161 389t389 161q137 0 250 -58v-247q-1 1 -2 3q-103 102 -248 102t-247.5 -102.5t-102.5 -247.5t102.5 -247.5t247.5 -102.5t248 103l2 2v-247q-113 -58 -250 -58q-228 0 -389 161t-161 389z" />
<glyph unicode="&#xaa;" horiz-adv-x="800" d="M100 1351q0 145 102.5 247t247.5 102q82 0 150 -32v32h200v-700h-200v34q-68 -32 -150 -32q-145 0 -247.5 102t-102.5 247zM300 1352q0 -60 43.5 -103t104.5 -43t104.5 43t43.5 103t-43.5 103t-104.5 43t-104.5 -43t-43.5 -103z" />
<glyph unicode="&#xab;" horiz-adv-x="1300" d="M97 798l635 638l142 -141l-494 -496l496 -494l-141 -142zM521 798l635 638l142 -141l-494 -496l496 -494l-141 -142z" />
<glyph unicode="&#xac;" d="M100 800v200h1100v-400l-200 -100v300h-900z" />
<glyph unicode="&#xad;" horiz-adv-x="700" d="M100 700v200h600v-200h-600z" />
<glyph unicode="&#xae;" horiz-adv-x="1700" d="M100 800q0 331 234.5 565.5t565.5 234.5t565.5 -234.5t234.5 -565.5t-234.5 -565.5t-565.5 -234.5t-565.5 234.5t-234.5 565.5zM300 780q0 -257 175.5 -438.5t424.5 -181.5t424.5 181.5t175.5 438.5t-175.5 438.5t-424.5 181.5t-424.5 -181.5t-175.5 -438.5zM700 200 v1100l200 -100v-25q130 109 300 123v-201q-113 -15 -197 -99q-85 -85 -102 -198l-1 -600h-200z" />
<glyph unicode="&#xaf;" horiz-adv-x="1000" d="M0 1600v200h1000v-200h-1000z" />
<glyph unicode="&#xb0;" horiz-adv-x="800" d="M100 1350q0 145 102.5 247.5t247.5 102.5t247.5 -102.5t102.5 -247.5t-102.5 -247.5t-247.5 -102.5t-247.5 102.5t-102.5 247.5zM300 1350q0 -62 44 -106t106 -44t106 44t44 106t-44 106t-106 44t-106 -44t-44 -106z" />
<glyph unicode="&#xb1;" horiz-adv-x="900" d="M100 200v200h800v-200h-800zM100 900v200h300v300h200v-300h300v-200h-300v-300h-200v300h-300z" />
<glyph unicode="&#xb2;" horiz-adv-x="700" d="M100 900v500h400v100h-200v200h400v-500h-400v-100h400v-200h-600z" />
<glyph unicode="&#xb3;" horiz-adv-x="700" d="M100 900v200h400v100h-200v200h200v100h-400v200h600v-800h-600z" />
<glyph unicode="&#xb4;" horiz-adv-x="500" d="M100 1261l164 378l238 -182l-322 -257z" />
<glyph unicode="&#xb5;" d="M100 -400v1500h200v-552q1 -144 102 -246q103 -102 248 -102t247 102t103 246v552h200v-1100l-200 100v25q-149 -125 -350 -125t-350 125v-525h-200z" />
<glyph unicode="&#xb6;" horiz-adv-x="1300" d="M100 1100q0 207 146.5 353.5t353.5 146.5h700l-100 -200h-100v-1400l-200 100v1300h-300v-1400h-200v640q-84 37 -153 107q-147 146 -147 353z" />
<glyph unicode="&#xb7;" horiz-adv-x="500" d="M100 750q0 62 44 106t106 44t106 -44t44 -106t-44 -106t-106 -44t-106 44t-44 106z" />
<glyph unicode="&#xb8;" horiz-adv-x="900" d="M500 -100v300h200v-218l224 -224l-282 -283l-142 141l142 142l-142 141l1 1h-1z" />
<glyph unicode="&#xb9;" horiz-adv-x="400" d="M100 1500v200h300v-800h-200v600h-100z" />
<glyph unicode="&#xba;" horiz-adv-x="800" d="M100 1351q0 145 102.5 247t247.5 102t247.5 -102t102.5 -247t-102.5 -247t-247.5 -102t-247.5 102t-102.5 247zM300 1352q0 -60 43.5 -103t104.5 -43t104.5 43t43.5 103t-43.5 103t-104.5 43t-104.5 -43t-43.5 -103z" />
<glyph unicode="&#xbb;" horiz-adv-x="1300" d="M97 305l496 494l-494 496l142 141l635 -638l-638 -635zM521 305l496 494l-494 496l142 141l635 -638l-638 -635z" />
<glyph unicode="&#xbc;" horiz-adv-x="1400" d="M100 1400v200h300v-800h-200v600h-100zM500 -500v2200h200v-2200h-200zM800 -100v500h200v-300h200v300h200v-800h-200v300h-400z" />
<glyph unicode="&#xbd;" horiz-adv-x="1400" d="M100 1400v200h300v-800h-200v600h-100zM500 -500v2200h200v-2200h-200zM800 100h400v100h-200v200h400v-500h-400v-100h400v-200h-600v500z" />
<glyph unicode="&#xbe;" horiz-adv-x="1700" d="M100 800v200h400v100h-200v200h200v100h-400v200h600v-800h-600zM800 -500v2200h200v-2200h-200zM1100 -100v500h200v-300h200v300h200v-800h-200v300h-400z" />
<glyph unicode="&#xbf;" horiz-adv-x="900" d="M100 350q0 228 161 389t389 161q25 0 50 -2v202l200 100v-605l-2 2q-103 103 -248 103t-247.5 -102.5t-102.5 -247.5t102.5 -247.5t247.5 -102.5t248 102q1 2 2 3v-247q-113 -58 -250 -58q-228 0 -389 161t-161 389zM650 1450q0 62 44 106t106 44t106 -44t44 -106 t-44 -106t-106 -44t-106 44t-44 106z" />
<glyph unicode="&#xc0;" horiz-adv-x="1500" d="M100 0l601 1597l-1 3h200l-1 -3l601 -1597h-213l-220 600h-534l-220 -600h-213zM398 1957l238 182l164 -378l-80 -61zM607 800h387l-194 527z" />
<glyph unicode="&#xc1;" horiz-adv-x="1500" d="M100 0l601 1597l-1 3h200l-1 -3l601 -1597h-213l-220 600h-534l-220 -600h-213zM607 800h387l-194 527zM798 1761l164 378l238 -182l-322 -257z" />
<glyph unicode="&#xc2;" horiz-adv-x="1500" d="M100 0l601 1597l-1 3h200l-1 -3l601 -1597h-213l-220 600h-534l-220 -600h-213zM446 1842l354 354l354 -354l-142 -142l-212 213l-212 -212zM607 800h387l-194 527z" />
<glyph unicode="&#xc3;" horiz-adv-x="1500" d="M100 0l601 1597l-1 3h200l-1 -3l601 -1597h-213l-220 600h-534l-220 -600h-213zM396 1841l282 283l142 -141l141 141l142 -141l-283 -283l-142 141l-141 -141zM607 800h387l-194 527z" />
<glyph unicode="&#xc4;" horiz-adv-x="1500" d="M100 0l601 1597l-1 3h200l-1 -3l601 -1597h-213l-220 600h-534l-220 -600h-213zM448 1800q0 41 29.5 70.5t70.5 29.5t70.5 -29.5t29.5 -70.5t-29.5 -70.5t-70.5 -29.5t-70.5 29.5t-29.5 70.5zM607 800h387l-194 527zM948 1800q0 41 29.5 70.5t70.5 29.5t70.5 -29.5 t29.5 -70.5t-29.5 -70.5t-70.5 -29.5t-70.5 29.5t-29.5 70.5z" />
<glyph unicode="&#xc5;" horiz-adv-x="1500" d="M100 0l601 1597l-1 3h200l-1 -3l601 -1597h-213l-220 600h-534l-220 -600h-213zM500 2000q0 124 88 212t212 88t212 -88t88 -212t-88 -212t-212 -88t-212 88t-88 212zM607 800h387l-194 527zM700 2000q0 -41 29.5 -70.5t70.5 -29.5t70.5 29.5t29.5 70.5t-29.5 70.5 t-70.5 29.5t-70.5 -29.5t-29.5 -70.5z" />
<glyph unicode="&#xc6;" horiz-adv-x="2300" d="M100 0l601 1597l-1 3h200l-1 -3l401 -1066v1069h1000v-200h-800v-500h600l-100 -200h-500v-500h800v-200h-1013l-220 600h-534l-220 -600h-213zM607 800h387l-194 527z" />
<glyph unicode="&#xc7;" horiz-adv-x="1100" d="M100 800q0 331 190.5 565.5t459.5 234.5q196 0 350 -124v-298q-15 24 -32 47q-132 175 -318 175t-318 -175.5t-132 -424.5t132 -424.5t318 -175.5t318 176q17 22 32 46v-298q-92 -74 -200 -104v-38l224 -224l-282 -283l-142 141l142 142l-142 141l1 1h-1v102 q-237 20 -409 233q-191 234 -191 565z" />
<glyph unicode="&#xc8;" horiz-adv-x="1100" d="M100 0v1600h1000v-200h-800v-500h600l-100 -200h-500v-500h800v-200h-1000zM198 1957l238 182l164 -378l-80 -61z" />
<glyph unicode="&#xc9;" horiz-adv-x="1100" d="M100 0v1600h1000v-200h-800v-500h600l-100 -200h-500v-500h800v-200h-1000zM598 1761l164 378l238 -182l-322 -257z" />
<glyph unicode="&#xca;" horiz-adv-x="1100" d="M100 0v1600h1000v-200h-800v-500h600l-100 -200h-500v-500h800v-200h-1000zM246 1842l354 354l354 -354l-142 -142l-212 213l-212 -212z" />
<glyph unicode="&#xcb;" horiz-adv-x="1100" d="M100 0v1600h1000v-200h-800v-500h600l-100 -200h-500v-500h800v-200h-1000zM250 1800q0 41 29.5 70.5t70.5 29.5t70.5 -29.5t29.5 -70.5t-29.5 -70.5t-70.5 -29.5t-70.5 29.5t-29.5 70.5zM750 1800q0 41 29.5 70.5t70.5 29.5t70.5 -29.5t29.5 -70.5t-29.5 -70.5 t-70.5 -29.5t-70.5 29.5t-29.5 70.5z" />
<glyph unicode="&#xcc;" horiz-adv-x="500" d="M-102 1957l238 182l164 -378l-80 -61zM100 0v200h100v1200h-100l100 200h300v-200h-100v-1200h100v-200h-400z" />
<glyph unicode="&#xcd;" horiz-adv-x="500" d="M100 0v200h100v1200h-100l100 200h300v-200h-100v-1200h100v-200h-400zM298 1761l164 378l238 -182l-322 -257z" />
<glyph unicode="&#xce;" horiz-adv-x="500" d="M-54 1842l354 354l353 -354l-141 -142l-212 213l-213 -212zM100 0v200h100v1200h-100l100 200h300v-200h-100v-1200h100v-200h-400z" />
<glyph unicode="&#xcf;" horiz-adv-x="500" d="M52 1800q0 41 29.5 70.5t70.5 29.5t70.5 -29.5t29.5 -70.5t-29.5 -70.5t-70.5 -29.5t-70.5 29.5t-29.5 70.5zM100 0v200h100v1200h-100l100 200h300v-200h-100v-1200h100v-200h-400zM352 1800q0 41 29.5 70.5t70.5 29.5t70.5 -29.5t29.5 -70.5t-29.5 -70.5t-70.5 -29.5 t-70.5 29.5t-29.5 70.5z" />
<glyph unicode="&#xd0;" horiz-adv-x="1300" d="M100 700v200h100v500h-100l100 200h450q269 0 459.5 -234.5t190.5 -565.5t-190.5 -565.5t-459.5 -234.5h-450v700h-100zM400 200h250q186 0 318 175.5t132 424.5t-132 424.5t-318 175.5h-250v-500h400l-100 -200h-300v-500z" />
<glyph unicode="&#xd1;" d="M100 0v1600h228l672 -1237v1137l200 100v-1600h-230l-670 1232v-1232h-200zM297 1841l282 283l142 -141l141 141l142 -141l-283 -283l-142 141l-141 -141z" />
<glyph unicode="&#xd2;" horiz-adv-x="1400" d="M100 800q0 331 190.5 565.5t459.5 234.5t459.5 -234.5t190.5 -565.5t-190.5 -565.5t-459.5 -234.5t-459.5 234.5t-190.5 565.5zM300 800q0 -249 132 -424.5t318 -175.5t318 175.5t132 424.5t-132 424.5t-318 175.5t-318 -175.5t-132 -424.5zM398 1957l238 182l164 -378 l-80 -61z" />
<glyph unicode="&#xd3;" horiz-adv-x="1400" d="M100 800q0 331 190.5 565.5t459.5 234.5t459.5 -234.5t190.5 -565.5t-190.5 -565.5t-459.5 -234.5t-459.5 234.5t-190.5 565.5zM300 800q0 -249 132 -424.5t318 -175.5t318 175.5t132 424.5t-132 424.5t-318 175.5t-318 -175.5t-132 -424.5zM700 1761l164 378l238 -182 l-322 -257z" />
<glyph unicode="&#xd4;" horiz-adv-x="1400" d="M100 800q0 331 190.5 565.5t459.5 234.5t459.5 -234.5t190.5 -565.5t-190.5 -565.5t-459.5 -234.5t-459.5 234.5t-190.5 565.5zM300 800q0 -249 132 -424.5t318 -175.5t318 175.5t132 424.5t-132 424.5t-318 175.5t-318 -175.5t-132 -424.5zM396 1842l354 354l354 -354 l-142 -142l-212 213l-212 -212z" />
<glyph unicode="&#xd5;" horiz-adv-x="1400" d="M100 800q0 331 190.5 565.5t459.5 234.5t459.5 -234.5t190.5 -565.5t-190.5 -565.5t-459.5 -234.5t-459.5 234.5t-190.5 565.5zM300 800q0 -249 132 -424.5t318 -175.5t318 175.5t132 424.5t-132 424.5t-318 175.5t-318 -175.5t-132 -424.5zM396 1841l282 283l142 -141 l141 141l142 -141l-283 -283l-142 141l-141 -141z" />
<glyph unicode="&#xd6;" horiz-adv-x="1400" d="M100 800q0 331 190.5 565.5t459.5 234.5t459.5 -234.5t190.5 -565.5t-190.5 -565.5t-459.5 -234.5t-459.5 234.5t-190.5 565.5zM300 800q0 -249 132 -424.5t318 -175.5t318 175.5t132 424.5t-132 424.5t-318 175.5t-318 -175.5t-132 -424.5zM400 1800q0 41 29.5 70.5 t70.5 29.5t70.5 -29.5t29.5 -70.5t-29.5 -70.5t-70.5 -29.5t-70.5 29.5t-29.5 70.5zM900 1800q0 41 29.5 70.5t70.5 29.5t70.5 -29.5t29.5 -70.5t-29.5 -70.5t-70.5 -29.5t-70.5 29.5t-29.5 70.5z" />
<glyph unicode="&#xd7;" horiz-adv-x="800" d="M146 588l212 212l-212 212l141 141l213 -212l212 213l141 -142l-212 -212l212 -212l-141 -141l-212 212l-212 -213z" />
<glyph unicode="&#xd8;" horiz-adv-x="1400" d="M100 -1l172 259q-172 228 -172 542q0 331 190.5 565.5t459.5 234.5q187 0 336 -113l148 223l167 -110l-172 -260q171 -226 171 -540q0 -331 -190.5 -565.5t-459.5 -234.5q-186 0 -335 112l-148 -224zM300 800q0 -206 91 -362l585 883q-101 79 -226 79q-186 0 -318 -175.5 t-132 -424.5zM526 278q100 -78 224 -78q186 0 318 175.5t132 424.5q0 205 -90 361z" />
<glyph unicode="&#xd9;" d="M100 549v1051h200v-1051q0 -144 103 -246q102 -103 247 -103t248 103q102 102 102 246v951l200 100v-1051q0 -227 -161 -388t-389 -161t-389 161t-161 388zM298 1957l238 182l164 -378l-80 -61z" />
<glyph unicode="&#xda;" d="M100 549v1051h200v-1051q0 -144 103 -246q102 -103 247 -103t248 103q102 102 102 246v951l200 100v-1051q0 -227 -161 -388t-389 -161t-389 161t-161 388zM600 1761l164 378l238 -182l-322 -257z" />
<glyph unicode="&#xdb;" d="M100 549v1051h200v-1051q0 -144 103 -246q102 -103 247 -103t248 103q102 102 102 246v951l200 100v-1051q0 -227 -161 -388t-389 -161t-389 161t-161 388zM296 1840l354 354l354 -354l-142 -142l-212 213l-212 -212z" />
<glyph unicode="&#xdc;" d="M100 549v1051h200v-1051q0 -144 103 -246q102 -103 247 -103t248 103q102 102 102 246v951l200 100v-1051q0 -227 -161 -388t-389 -161t-389 161t-161 388zM300 1800q0 41 29.5 70.5t70.5 29.5t70.5 -29.5t29.5 -70.5t-29.5 -70.5t-70.5 -29.5t-70.5 29.5t-29.5 70.5z M800 1800q0 41 29.5 70.5t70.5 29.5t70.5 -29.5t29.5 -70.5t-29.5 -70.5t-70.5 -29.5t-70.5 29.5t-29.5 70.5z" />
<glyph unicode="&#xdd;" d="M100 0l438 800l-438 800h228l324 -592l323 592h228l-875 -1600h-228zM600 1761l164 378l238 -182l-322 -257z" />
<glyph unicode="&#xde;" horiz-adv-x="1100" d="M100 0v1600h200v-310q113 58 250 58q228 0 389 -161t161 -389t-161 -389t-389 -161q-137 0 -250 58v-306h-200zM300 553l2 -2q103 -103 248 -103t247.5 102.5t102.5 247.5t-102.5 247.5t-247.5 102.5t-248 -102q-1 -2 -2 -3v-490z" />
<glyph unicode="&#xdf;" horiz-adv-x="1000" d="M100 0v1151q0 185 132 317t318 132t318 -132t132 -318t-132 -318q-23 -23 -48 -42l180 -390q0 -186 -132 -318t-318 -132h-1v200h1q104 0 177 75q70 72 70 131v5l-159 347q-42 -8 -88 -8h-1v200h1q104 0 177 73t73 177t-73 177t-177 73t-177 -73t-73 -177v-1150h-200z " />
<glyph unicode="&#xe0;" d="M100 550q0 228 161 389t389 161q201 0 350 -125v125h200v-1100l-200 100v25q-149 -125 -350 -125q-228 0 -389 161t-161 389zM298 1457l238 182l164 -378l-79 -61zM300 550q0 -145 102.5 -247.5t247.5 -102.5t247.5 102.5t102.5 247.5t-102.5 247.5t-247.5 102.5 t-247.5 -102.5t-102.5 -247.5z" />
<glyph unicode="&#xe1;" d="M100 550q0 228 161 389t389 161q201 0 350 -125v125h200v-1100l-200 100v25q-149 -125 -350 -125q-228 0 -389 161t-161 389zM300 550q0 -145 102.5 -247.5t247.5 -102.5t247.5 102.5t102.5 247.5t-102.5 247.5t-247.5 102.5t-247.5 -102.5t-102.5 -247.5zM598 1261 l164 378l238 -182l-322 -257z" />
<glyph unicode="&#xe2;" d="M100 550q0 228 161 389t389 161q201 0 350 -125v125h200v-1100l-200 100v25q-149 -125 -350 -125q-228 0 -389 161t-161 389zM296 1340l354 354l354 -354l-142 -142l-212 213l-212 -212zM300 550q0 -145 102.5 -247.5t247.5 -102.5t247.5 102.5t102.5 247.5t-102.5 247.5 t-247.5 102.5t-247.5 -102.5t-102.5 -247.5z" />
<glyph unicode="&#xe3;" d="M100 550q0 228 161 389t389 161q201 0 350 -125v125h200v-1100l-200 100v25q-149 -125 -350 -125q-228 0 -389 161t-161 389zM299 1341l282 283l142 -141l141 141l142 -141l-283 -283l-142 141l-141 -141zM300 550q0 -145 102.5 -247.5t247.5 -102.5t247.5 102.5 t102.5 247.5t-102.5 247.5t-247.5 102.5t-247.5 -102.5t-102.5 -247.5z" />
<glyph unicode="&#xe4;" d="M100 550q0 228 161 389t389 161q201 0 350 -125v125h200v-1100l-200 100v25q-149 -125 -350 -125q-228 0 -389 161t-161 389zM300 550q0 -145 102.5 -247.5t247.5 -102.5t247.5 102.5t102.5 247.5t-102.5 247.5t-247.5 102.5t-247.5 -102.5t-102.5 -247.5zM300 1300 q0 41 29.5 70.5t70.5 29.5t70.5 -29.5t29.5 -70.5t-29.5 -70.5t-70.5 -29.5t-70.5 29.5t-29.5 70.5zM800 1300q0 41 29.5 70.5t70.5 29.5t70.5 -29.5t29.5 -70.5t-29.5 -70.5t-70.5 -29.5t-70.5 29.5t-29.5 70.5z" />
<glyph unicode="&#xe5;" d="M100 550q0 228 161 389t389 161q201 0 350 -125v125h200v-1100l-200 100v25q-149 -125 -350 -125q-228 0 -389 161t-161 389zM300 550q0 -145 102.5 -247.5t247.5 -102.5t247.5 102.5t102.5 247.5t-102.5 247.5t-247.5 102.5t-247.5 -102.5t-102.5 -247.5zM350 1500 q0 124 88 212t212 88t212 -88t88 -212t-88 -212t-212 -88t-212 88t-88 212zM550 1500q0 -41 29.5 -70.5t70.5 -29.5t70.5 29.5t29.5 70.5t-29.5 70.5t-70.5 29.5t-70.5 -29.5t-29.5 -70.5z" />
<glyph unicode="&#xe6;" horiz-adv-x="2100" d="M100 550q0 228 161 389t389 161q201 0 350 -125v125h200v-125q149 125 350 125q228 0 389 -161t161 -389q0 -21 -1 -42l1 -8h-897q15 -113 100 -197q102 -103 247 -103t248 103l2 2v-247q-113 -58 -250 -58q-201 0 -350 125v-125l-200 100v25q-149 -125 -350 -125 q-228 0 -389 161t-161 389zM300 550q0 -145 102.5 -247.5t247.5 -102.5t247.5 102.5t102.5 247.5t-102.5 247.5t-247.5 102.5t-247.5 -102.5t-102.5 -247.5zM1233 700h634q-25 53 -69 98q-103 102 -248 102t-247 -102q-45 -45 -70 -98z" />
<glyph unicode="&#xe7;" horiz-adv-x="900" d="M100 550q0 228 161 389t389 161q137 0 250 -58v-247q-1 1 -2 3q-103 102 -248 102t-247.5 -102.5t-102.5 -247.5t102.5 -247.5t247.5 -102.5t248 103l2 2v-247q-92 -47 -200 -56v-20l224 -224l-282 -283l-142 141l142 142l-142 141l1 1h-1v119q-134 37 -239 142 q-161 161 -161 389z" />
<glyph unicode="&#xe8;" d="M100 550q0 228 161 389t389 161t389 -161t161 -389q0 -21 -1 -42l1 -8h-897q15 -113 100 -197q102 -103 247 -103t248 103l2 2v-247q-113 -58 -250 -58q-228 0 -389 161t-161 389zM298 1457l238 182l164 -378l-79 -61zM333 700h634q-25 53 -69 98q-103 102 -248 102 t-247 -102q-45 -45 -70 -98z" />
<glyph unicode="&#xe9;" d="M100 550q0 228 161 389t389 161t389 -161t161 -389q0 -21 -1 -42l1 -8h-897q15 -113 100 -197q102 -103 247 -103t248 103l2 2v-247q-113 -58 -250 -58q-228 0 -389 161t-161 389zM333 700h634q-25 53 -69 98q-103 102 -248 102t-247 -102q-45 -45 -70 -98zM598 1261 l164 378l238 -182l-322 -257z" />
<glyph unicode="&#xea;" d="M100 550q0 228 161 389t389 161t389 -161t161 -389q0 -21 -1 -42l1 -8h-897q15 -113 100 -197q102 -103 247 -103t248 103l2 2v-247q-113 -58 -250 -58q-228 0 -389 161t-161 389zM296 1340l354 354l354 -354l-142 -142l-212 213l-212 -212zM333 700h634q-25 53 -69 98 q-103 102 -248 102t-247 -102q-45 -45 -70 -98z" />
<glyph unicode="&#xeb;" d="M100 550q0 228 161 389t389 161t389 -161t161 -389q0 -21 -1 -42l1 -8h-897q15 -113 100 -197q102 -103 247 -103t248 103l2 2v-247q-113 -58 -250 -58q-228 0 -389 161t-161 389zM300 1300q0 41 29.5 70.5t70.5 29.5t70.5 -29.5t29.5 -70.5t-29.5 -70.5t-70.5 -29.5 t-70.5 29.5t-29.5 70.5zM333 700h634q-25 53 -69 98q-103 102 -248 102t-247 -102q-45 -45 -70 -98zM800 1300q0 41 29.5 70.5t70.5 29.5t70.5 -29.5t29.5 -70.5t-29.5 -70.5t-70.5 -29.5t-70.5 29.5t-29.5 70.5z" />
<glyph unicode="&#xec;" horiz-adv-x="400" d="M-102 1457l238 182l164 -378l-79 -61zM100 900l100 200h200v-1100h-200v900h-100z" />
<glyph unicode="&#xed;" horiz-adv-x="400" d="M100 900l100 200h200v-1100h-200v900h-100zM200 1261l164 378l238 -182l-322 -257z" />
<glyph unicode="&#xee;" horiz-adv-x="400" d="M-98 1342l354 354l353 -354l-141 -142l-212 213l-213 -212zM100 900l100 200h200v-1100h-200v900h-100z" />
<glyph unicode="&#xef;" horiz-adv-x="400" d="M0 1300q0 41 29.5 70.5t70.5 29.5t70.5 -29.5t29.5 -70.5t-29.5 -70.5t-70.5 -29.5t-70.5 29.5t-29.5 70.5zM100 900l100 200h200v-1100h-200v900h-100zM300 1300q0 41 29.5 70.5t70.5 29.5t70.5 -29.5t29.5 -70.5t-29.5 -70.5t-70.5 -29.5t-70.5 29.5t-29.5 70.5z" />
<glyph unicode="&#xf0;" d="M100 550q0 228 161 389t389 161q201 0 350 -125v325h-100l-100 200h200v200h200v-200h100v-200h-100v-1300l-200 100v25q-149 -125 -350 -125q-228 0 -389 161t-161 389zM300 550q0 -145 102.5 -247.5t247.5 -102.5t247.5 102.5t102.5 247.5t-102.5 247.5t-247.5 102.5 t-247.5 -102.5t-102.5 -247.5z" />
<glyph unicode="&#xf1;" d="M100 0v1000l200 100v-125q149 125 350 125q228 0 389 -161q160 -160 161 -387v-552h-200v552q-1 144 -102 246q-103 102 -248 102t-247 -102t-103 -246v-552h-200zM299 1341l282 283l142 -141l141 141l142 -141l-283 -283l-142 141l-141 -141z" />
<glyph unicode="&#xf2;" d="M100 550q0 228 161 389t389 161t389 -161t161 -389t-161 -389t-389 -161t-389 161t-161 389zM298 1457l238 182l164 -378l-79 -61zM300 550q0 -145 102.5 -247.5t247.5 -102.5t247.5 102.5t102.5 247.5t-102.5 247.5t-247.5 102.5t-247.5 -102.5t-102.5 -247.5z" />
<glyph unicode="&#xf3;" d="M100 550q0 228 161 389t389 161t389 -161t161 -389t-161 -389t-389 -161t-389 161t-161 389zM300 550q0 -145 102.5 -247.5t247.5 -102.5t247.5 102.5t102.5 247.5t-102.5 247.5t-247.5 102.5t-247.5 -102.5t-102.5 -247.5zM598 1261l164 378l238 -182l-322 -257z" />
<glyph unicode="&#xf4;" d="M100 550q0 228 161 389t389 161t389 -161t161 -389t-161 -389t-389 -161t-389 161t-161 389zM296 1340l354 354l354 -354l-142 -142l-212 213l-212 -212zM300 550q0 -145 102.5 -247.5t247.5 -102.5t247.5 102.5t102.5 247.5t-102.5 247.5t-247.5 102.5t-247.5 -102.5 t-102.5 -247.5z" />
<glyph unicode="&#xf5;" d="M100 550q0 228 161 389t389 161t389 -161t161 -389t-161 -389t-389 -161t-389 161t-161 389zM299 1341l282 283l142 -141l141 141l142 -141l-283 -283l-142 141l-141 -141zM300 550q0 -145 102.5 -247.5t247.5 -102.5t247.5 102.5t102.5 247.5t-102.5 247.5t-247.5 102.5 t-247.5 -102.5t-102.5 -247.5z" />
<glyph unicode="&#xf6;" d="M100 550q0 228 161 389t389 161t389 -161t161 -389t-161 -389t-389 -161t-389 161t-161 389zM300 550q0 -145 102.5 -247.5t247.5 -102.5t247.5 102.5t102.5 247.5t-102.5 247.5t-247.5 102.5t-247.5 -102.5t-102.5 -247.5zM300 1300q0 41 29.5 70.5t70.5 29.5 t70.5 -29.5t29.5 -70.5t-29.5 -70.5t-70.5 -29.5t-70.5 29.5t-29.5 70.5zM800 1300q0 41 29.5 70.5t70.5 29.5t70.5 -29.5t29.5 -70.5t-29.5 -70.5t-70.5 -29.5t-70.5 29.5t-29.5 70.5z" />
<glyph unicode="&#xf7;" horiz-adv-x="900" d="M100 700v200h800v-200h-800zM400 400q0 41 29.5 70.5t70.5 29.5t70.5 -29.5t29.5 -70.5t-29.5 -70.5t-70.5 -29.5t-70.5 29.5t-29.5 70.5zM400 1200q0 41 29.5 70.5t70.5 29.5t70.5 -29.5t29.5 -70.5t-29.5 -70.5t-70.5 -29.5t-70.5 29.5t-29.5 70.5z" />
<glyph unicode="&#xf8;" d="M100 141l96 96q-96 137 -96 313q0 228 161 389t389 161q176 0 312 -96l96 96l142 -141l-96 -96q96 -137 96 -313q0 -228 -161 -389t-389 -161q-176 0 -313 96l-96 -96zM300 550q0 -92 41 -167l476 476q-75 41 -167 41q-145 0 -247.5 -102.5t-102.5 -247.5zM483 242 q75 -42 167 -42q145 0 247.5 102.5t102.5 247.5q0 92 -42 167z" />
<glyph unicode="&#xf9;" d="M100 548v552h200v-552q1 -144 102 -246q103 -102 248 -102t247 102t103 246v552h200v-1100l-200 100v25q-149 -125 -350 -125q-228 0 -389 161q-160 160 -161 387zM298 1457l238 182l164 -378l-79 -61z" />
<glyph unicode="&#xfa;" d="M100 548v552h200v-552q1 -144 102 -246q103 -102 248 -102t247 102t103 246v552h200v-1100l-200 100v25q-149 -125 -350 -125q-228 0 -389 161q-160 160 -161 387zM598 1261l164 378l238 -182l-322 -257z" />
<glyph unicode="&#xfb;" d="M100 548v552h200v-552q1 -144 102 -246q103 -102 248 -102t247 102t103 246v552h200v-1100l-200 100v25q-149 -125 -350 -125q-228 0 -389 161q-160 160 -161 387zM296 1340l354 354l354 -354l-142 -142l-212 213l-212 -212z" />
<glyph unicode="&#xfc;" d="M100 548v552h200v-552q1 -144 102 -246q103 -102 248 -102t247 102t103 246v552h200v-1100l-200 100v25q-149 -125 -350 -125q-228 0 -389 161q-160 160 -161 387zM300 1300q0 41 29.5 70.5t70.5 29.5t70.5 -29.5t29.5 -70.5t-29.5 -70.5t-70.5 -29.5t-70.5 29.5 t-29.5 70.5zM800 1300q0 41 29.5 70.5t70.5 29.5t70.5 -29.5t29.5 -70.5t-29.5 -70.5t-70.5 -29.5t-70.5 29.5t-29.5 70.5z" />
<glyph unicode="&#xfd;" horiz-adv-x="1100" d="M98 1099l1 1h241l560 -812v712l200 100v-1100q-18 -198 -161 -341t-339 -159v201q113 15 197 99q85 85 102 200h-42zM598 1261l164 378l238 -182l-322 -257z" />
<glyph unicode="&#xfe;" d="M100 -400v2000h200v-575q149 125 350 125q228 0 389 -161t161 -389t-161 -389t-389 -161q-201 0 -350 125v-575h-200zM300 600q0 -145 102.5 -247.5t247.5 -102.5t247.5 102.5t102.5 247.5t-102.5 247.5t-247.5 102.5t-247.5 -102.5t-102.5 -247.5z" />
<glyph unicode="&#xff;" horiz-adv-x="1100" d="M98 1099l1 1h241l560 -812v712l200 100v-1100q-18 -198 -161 -341t-339 -159v201q113 15 197 99q85 85 102 200h-42zM300 1300q0 41 29.5 70.5t70.5 29.5t70.5 -29.5t29.5 -70.5t-29.5 -70.5t-70.5 -29.5t-70.5 29.5t-29.5 70.5zM800 1300q0 41 29.5 70.5t70.5 29.5 t70.5 -29.5t29.5 -70.5t-29.5 -70.5t-70.5 -29.5t-70.5 29.5t-29.5 70.5z" />
<glyph unicode="&#x152;" horiz-adv-x="2200" d="M100 800q0 331 190.5 565.5t459.5 234.5q262 0 450 -223v223h1000v-200h-800v-500h600l-100 -200h-500v-500h800v-200h-1000v223q-188 -223 -450 -223q-269 0 -459.5 234.5t-190.5 565.5zM300 800q0 -249 132 -424.5t318 -175.5t318 175.5t132 424.5t-132 424.5 t-318 175.5t-318 -175.5t-132 -424.5z" />
<glyph unicode="&#x153;" horiz-adv-x="2100" d="M100 550q0 228 161 389t389 161t389 -161q34 -34 61 -71q27 37 61 71q161 161 389 161t389 -161t161 -389q0 -21 -1 -42l1 -8h-897q15 -113 100 -197q102 -103 247 -103t248 103l2 2v-247q-113 -58 -250 -58q-228 0 -389 161q-34 34 -61 71q-27 -37 -61 -71 q-161 -161 -389 -161t-389 161t-161 389zM300 550q0 -145 102.5 -247.5t247.5 -102.5t247.5 102.5t102.5 247.5t-102.5 247.5t-247.5 102.5t-247.5 -102.5t-102.5 -247.5zM1233 700h634q-25 53 -69 98q-103 102 -248 102t-247 -102q-45 -45 -70 -98z" />
<glyph unicode="&#x2c6;" horiz-adv-x="800" d="M100 1342l354 354l354 -354l-142 -142l-212 213l-212 -212z" />
<glyph unicode="&#x2dc;" horiz-adv-x="1000" d="M299 1341l282 283l142 -141l141 141l142 -141l-283 -283l-142 141l-141 -141z" />
<glyph unicode="&#x2000;" horiz-adv-x="1150" />
<glyph unicode="&#x2001;" horiz-adv-x="2300" />
<glyph unicode="&#x2002;" horiz-adv-x="1150" />
<glyph unicode="&#x2003;" horiz-adv-x="2300" />
<glyph unicode="&#x2004;" horiz-adv-x="766" />
<glyph unicode="&#x2005;" horiz-adv-x="575" />
<glyph unicode="&#x2006;" horiz-adv-x="383" />
<glyph unicode="&#x2007;" horiz-adv-x="383" />
<glyph unicode="&#x2008;" horiz-adv-x="287" />
<glyph unicode="&#x2009;" horiz-adv-x="460" />
<glyph unicode="&#x200a;" horiz-adv-x="127" />
<glyph unicode="&#x2010;" horiz-adv-x="700" d="M100 700v200h600v-200h-600z" />
<glyph unicode="&#x2011;" horiz-adv-x="700" d="M100 700v200h600v-200h-600z" />
<glyph unicode="&#x2012;" horiz-adv-x="700" d="M100 700v200h600v-200h-600z" />
<glyph unicode="&#x2013;" horiz-adv-x="1100" d="M100 700v200h1000v-200h-1000z" />
<glyph unicode="&#x2014;" horiz-adv-x="2000" d="M100 700v200h1900v-200h-1900z" />
<glyph unicode="&#x2018;" horiz-adv-x="400" d="M100 1450l100 250l100 200v-308q31 -11 56 -36q44 -44 44 -106t-44 -106t-106 -44t-106 44t-44 106z" />
<glyph unicode="&#x2019;" horiz-adv-x="400" d="M100 1750q0 62 44 106t106 44t106 -44t44 -106l-100 -250l-100 -200v308q-31 11 -56 36q-44 44 -44 106z" />
<glyph unicode="&#x201a;" horiz-adv-x="400" d="M100 150q0 62 44 106t106 44t106 -44t44 -106l-100 -250l-100 -200v308q-31 11 -56 36q-44 44 -44 106z" />
<glyph unicode="&#x201c;" horiz-adv-x="800" d="M100 1450l100 250l100 200v-308q31 -11 56 -36q44 -44 44 -106t-44 -106t-106 -44t-106 44t-44 106zM500 1450l100 250l100 200v-308q31 -11 56 -36q44 -44 44 -106t-44 -106t-106 -44t-106 44t-44 106z" />
<glyph unicode="&#x201d;" horiz-adv-x="800" d="M100 1750q0 62 44 106t106 44t106 -44t44 -106l-100 -250l-100 -200v308q-31 11 -56 36q-44 44 -44 106zM500 1750q0 62 44 106t106 44t106 -44t44 -106l-100 -250l-100 -200v308q-31 11 -56 36q-44 44 -44 106z" />
<glyph unicode="&#x201e;" horiz-adv-x="800" d="M100 150q0 62 44 106t106 44t106 -44t44 -106l-100 -250l-100 -200v308q-31 11 -56 36q-44 44 -44 106zM500 150q0 62 44 106t106 44t106 -44t44 -106l-100 -250l-100 -200v308q-31 11 -56 36q-44 44 -44 106z" />
<glyph unicode="&#x2022;" horiz-adv-x="1000" d="M200 800q0 166 117 283t283 117t283 -117t117 -283t-117 -283t-283 -117t-283 117t-117 283z" />
<glyph unicode="&#x2026;" horiz-adv-x="1500" d="M100 150q0 62 44 106t106 44t106 -44t44 -106t-44 -106t-106 -44t-106 44t-44 106zM600 150q0 62 44 106t106 44t106 -44t44 -106t-44 -106t-106 -44t-106 44t-44 106zM1100 150q0 62 44 106t106 44t106 -44t44 -106t-44 -106t-106 -44t-106 44t-44 106z" />
<glyph unicode="&#x202f;" horiz-adv-x="460" />
<glyph unicode="&#x2039;" horiz-adv-x="700" d="M100 805l495 495l141 -141l-353 -354l353 -354l-141 -141z" />
<glyph unicode="&#x203a;" horiz-adv-x="700" d="M100 451l354 354l-354 354l141 141l495 -495l-495 -495z" />
<glyph unicode="&#x205f;" horiz-adv-x="575" />
<glyph unicode="&#x20ac;" d="M100 550v200h101q-1 25 -1 50t1 50h-101v200h131q45 175 160 316q190 234 459 234q196 0 350 -124v-298q-15 24 -32 47q-132 175 -318 175t-318 -175q-60 -80 -93 -175h661l-100 -200h-599q-1 -25 -1 -50t1 -50h599l-100 -200h-461q33 -95 93 -174q132 -176 318 -176 t318 176q17 22 32 46v-298q-154 -124 -350 -124q-269 0 -459 235q-115 140 -160 315h-131z" />
<glyph unicode="&#x2122;" horiz-adv-x="1600" d="M100 1500l100 200h500v-200h-200v-500h-200v500h-200zM800 1000v700h200v-2h72l128 -141l129 141h71v2h200v-700l-200 100v401l-62 -61v1l-139 -141l-199 199v-499h-200z" />
<glyph unicode="&#x25fc;" horiz-adv-x="1100" d="M0 0v1100h1100v-1100h-1100z" />
</font>
</defs>
</svg>
